<svg width="600" height="215" viewBox="0 0 600 215" fill="none" xmlns="http://www.w3.org/2000/svg">
<path d="M78.9 209.8C61.1 209.8 45.9 206 33.3 198.4C20.9 190.6 12.2 180.5 7.2 168.1C6 166.1 5.4 164.1 5.4 162.1C5.4 159.3 6.4 157 8.4 155.2C10.4 153.2 12.8 152.2 15.6 152.2C20.6 152.2 23.9 154.8 25.5 160C28.9 169.4 35.5 177.1 45.3 183.1C55.3 188.9 66.5 191.8 78.9 191.8C88.7 191.8 97.4 190.1 105 186.7C112.8 183.3 118.8 178.7 123 172.9C127.4 167.1 129.6 160.6 129.6 153.4C129.6 144.2 125.8 136.2 118.2 129.4C110.6 122.6 97.7 116.7 79.5 111.7C37.7 100.3 16.8 81.7 16.8 55.9C16.8 46.1 19.5 37.4 24.9 29.8C30.5 22.2 38.5 16.2 48.9 11.8C59.5 7.39998 71.8 5.19998 85.8 5.19998C105.6 5.19998 121 8.99999 132 16.6C143 24 148.5 34 148.5 46.6C148.5 49.2 147.6 51.5 145.8 53.5C144 55.3 141.8 56.2 139.2 56.2C136.8 56.2 134.7 55.4 132.9 53.8C131.3 52.2 130.4 50.3 130.2 48.1C129.2 40.5 124.6 34.3 116.4 29.5C108.4 24.7 97.9 22.3 84.9 22.3C69.3 22.3 57.2 25.2 48.6 31C40.2 36.8 36 44.8 36 55C36 63.6 39.9 70.9 47.7 76.9C55.7 82.9 67.9 88.2 84.3 92.8C105.9 98.8 122 106.7 132.6 116.5C143.4 126.1 148.8 137.9 148.8 151.9C148.8 162.7 145.6 172.6 139.2 181.6C132.8 190.4 124.2 197.3 113.4 202.3C102.6 207.3 91.1 209.8 78.9 209.8ZM183.527 208C180.727 208 178.327 207.1 176.327 205.3C174.527 203.5 173.627 201.3 173.627 198.7C173.627 196.1 174.527 194 176.327 192.4C178.327 190.6 180.727 189.7 183.527 189.7H212.027V25.3H183.527C180.727 25.3 178.327 24.4 176.327 22.6C174.527 20.8 173.627 18.6 173.627 16C173.627 13.4 174.527 11.3 176.327 9.7C178.327 7.9 180.727 6.99999 183.527 6.99999H259.427C262.027 6.99999 264.227 7.9 266.027 9.7C267.827 11.3 268.727 13.4 268.727 16C268.727 18.6 267.827 20.8 266.027 22.6C264.227 24.4 262.027 25.3 259.427 25.3H231.227V189.7H259.427C262.227 189.7 264.427 190.6 266.027 192.4C267.827 194 268.727 196.1 268.727 198.7C268.727 201.3 267.827 203.5 266.027 205.3C264.227 207.1 262.027 208 259.427 208H183.527ZM314.508 209.8C311.908 209.8 309.608 208.9 307.608 207.1C305.808 205.1 304.908 202.8 304.908 200.2V18.4C304.908 14.6 305.308 11.9 306.108 10.3C307.108 8.49999 309.308 7.19999 312.708 6.39998C316.108 5.59998 321.708 5.19998 329.508 5.19998C366.908 5.19998 394.908 10.5 413.508 21.1C432.108 31.7 441.408 47 441.408 67C441.408 84.2 435.008 98.2 422.208 109C409.408 119.6 394.008 127.2 376.008 131.8C358.008 136.4 340.708 138.8 324.108 139V200.2C324.108 202.8 323.208 205.1 321.408 207.1C319.608 208.9 317.308 209.8 314.508 209.8ZM324.108 120.1C336.108 119.9 349.608 118.3 364.608 115.3C379.608 112.3 393.008 106.9 404.808 99.1C416.608 91.1 422.508 80.4 422.508 67C422.508 53.2 414.908 42.6 399.708 35.2C384.508 27.8 362.808 24.1 334.608 24.1C329.208 24.1 325.708 24.2 324.108 24.4V120.1ZM482.079 209.8C479.679 210 477.479 209.1 475.479 207.1C473.679 204.9 472.779 202.6 472.779 200.2V14.8C472.779 12.4 473.679 10.3 475.479 8.49999C477.479 6.5 479.779 5.5 482.379 5.5C484.979 5.5 487.179 6.5 488.979 8.49999C490.979 10.3 491.979 12.4 491.979 14.8V190.3L584.679 184C587.479 183.8 589.779 184.6 591.579 186.4C593.379 188.2 594.279 190.5 594.279 193.3C594.279 195.7 593.379 197.8 591.579 199.6C589.779 201.4 587.679 202.4 585.279 202.6L482.079 209.8Z" fill="black"/>
<path d="M33.3 198.4L30.6377 202.632L30.6774 202.657L30.7175 202.681L33.3 198.4ZM7.2 168.1L11.8372 166.23L11.69 165.865L11.4875 165.528L7.2 168.1ZM8.4 155.2L11.7448 158.916L11.8426 158.829L11.9355 158.736L8.4 155.2ZM25.5 160L20.7211 161.47L20.7568 161.586L20.7981 161.701L25.5 160ZM45.3 183.1L42.6892 187.364L42.74 187.395L42.7914 187.425L45.3 183.1ZM105 186.7L103.002 182.117L102.98 182.126L102.958 182.136L105 186.7ZM123 172.9L119.017 169.878L118.983 169.922L118.95 169.967L123 172.9ZM118.2 129.4L121.534 125.674L121.534 125.674L118.2 129.4ZM79.5 111.7L80.8246 106.879L80.8156 106.876L79.5 111.7ZM24.9 29.8L20.8747 26.834L20.8491 26.8688L20.8241 26.904L24.9 29.8ZM48.9 11.8L46.9831 7.18203L46.9674 7.18854L46.9518 7.19515L48.9 11.8ZM132 16.6L129.158 20.7136L129.183 20.7313L129.209 20.7486L132 16.6ZM145.8 53.5L149.336 57.0355L149.429 56.9425L149.516 56.8448L145.8 53.5ZM132.9 53.8L129.364 57.3355L129.468 57.4394L129.578 57.5371L132.9 53.8ZM130.2 48.1L135.179 47.6473L135.17 47.5473L135.157 47.4477L130.2 48.1ZM116.4 29.5L113.828 33.7875L113.851 33.8014L113.874 33.8151L116.4 29.5ZM48.6 31L45.8043 26.8546L45.7816 26.8699L45.759 26.8855L48.6 31ZM47.7 76.9L44.6515 80.8631L44.6756 80.8817L44.7 80.9L47.7 76.9ZM84.3 92.8L82.9497 97.6142L82.9618 97.6176L84.3 92.8ZM132.6 116.5L129.206 120.171L129.242 120.205L129.278 120.237L132.6 116.5ZM139.2 181.6L143.244 184.541L143.259 184.519L143.275 184.498L139.2 181.6ZM113.4 202.3L111.299 197.763L111.299 197.763L113.4 202.3ZM78.9 204.8C61.8189 204.8 47.5541 201.159 35.8825 194.119L30.7175 202.681C44.2459 210.841 60.3811 214.8 78.9 214.8V204.8ZM35.9623 194.168C24.3631 186.871 16.406 177.561 11.8372 166.23L2.56279 169.97C7.99403 183.439 17.4369 194.329 30.6377 202.632L35.9623 194.168ZM11.4875 165.528C10.6752 164.174 10.4 163.052 10.4 162.1H0.4C0.4 165.148 1.3248 168.026 2.91254 170.672L11.4875 165.528ZM10.4 162.1C10.4 160.652 10.846 159.725 11.7448 158.916L5.05518 151.484C1.95401 154.275 0.4 157.948 0.4 162.1H10.4ZM11.9355 158.736C13.0086 157.663 14.1411 157.2 15.6 157.2V147.2C11.4589 147.2 7.79145 148.737 4.86447 151.664L11.9355 158.736ZM15.6 157.2C17.1988 157.2 18.1219 157.598 18.7306 158.077C19.3768 158.587 20.1323 159.557 20.7211 161.47L30.2789 158.53C29.2677 155.243 27.5732 152.313 24.9194 150.223C22.2281 148.102 19.0012 147.2 15.6 147.2V157.2ZM20.7981 161.701C24.6406 172.324 32.0735 180.865 42.6892 187.364L47.9108 178.836C38.9265 173.335 33.1594 166.476 30.2019 158.299L20.7981 161.701ZM42.7914 187.425C53.6089 193.699 65.6852 196.8 78.9 196.8V186.8C67.3148 186.8 56.9911 184.101 47.8086 178.775L42.7914 187.425ZM78.9 196.8C89.2806 196.8 98.6959 194.998 107.042 191.264L102.958 182.136C96.1042 185.202 88.1195 186.8 78.9 186.8V196.8ZM106.998 191.283C115.462 187.594 122.235 182.482 127.05 175.833L118.95 169.967C115.365 174.918 110.138 179.006 103.002 182.117L106.998 191.283ZM126.983 175.922C132.035 169.263 134.6 161.704 134.6 153.4H124.6C124.6 159.496 122.765 164.937 119.017 169.878L126.983 175.922ZM134.6 153.4C134.6 142.614 130.066 133.307 121.534 125.674L114.866 133.126C121.534 139.093 124.6 145.786 124.6 153.4H134.6ZM121.534 125.674C113.054 118.086 99.239 111.938 80.8246 106.879L78.1755 116.521C96.161 121.462 108.146 127.114 114.866 133.126L121.534 125.674ZM80.8156 106.876C60.291 101.279 45.4422 94.0469 35.799 85.4649C26.314 77.0236 21.8 67.2428 21.8 55.9H11.8C11.8 70.3572 17.736 82.7763 29.151 92.9351C40.4078 102.953 56.909 110.721 78.1844 116.524L80.8156 106.876ZM21.8 55.9C21.8 47.0815 24.2089 39.4052 28.9759 32.696L20.8241 26.904C14.7911 35.3948 11.8 45.1185 11.8 55.9H21.8ZM28.9253 32.766C33.8966 26.0191 41.1122 20.5239 50.8482 16.4048L46.9518 7.19515C35.8878 11.8761 27.1034 18.3808 20.8747 26.834L28.9253 32.766ZM50.8169 16.4179C60.6915 12.319 72.3171 10.2 85.8 10.2V0.199982C71.2829 0.199982 58.3085 2.48093 46.9831 7.18203L50.8169 16.4179ZM85.8 10.2C105.047 10.2 119.306 13.9072 129.158 20.7136L134.842 12.4863C122.694 4.09281 106.153 0.199982 85.8 0.199982V10.2ZM129.209 20.7486C138.914 27.2774 143.5 35.7653 143.5 46.6H153.5C153.5 32.2347 147.086 20.7226 134.791 12.4514L129.209 20.7486ZM143.5 46.6C143.5 47.9182 143.089 49.0381 142.084 50.1552L149.516 56.8448C152.111 53.9619 153.5 50.4818 153.5 46.6H143.5ZM142.264 49.9645C141.424 50.8045 140.506 51.2 139.2 51.2V61.2C143.094 61.2 146.576 59.7954 149.336 57.0355L142.264 49.9645ZM139.2 51.2C138.029 51.2 137.11 50.8525 136.222 50.0629L129.578 57.5371C132.29 59.9475 135.571 61.2 139.2 61.2V51.2ZM136.436 50.2645C135.641 49.4696 135.271 48.6519 135.179 47.6473L125.221 48.5527C125.529 51.948 126.959 54.9303 129.364 57.3355L136.436 50.2645ZM135.157 47.4477C133.908 37.9527 128.106 30.5584 118.926 25.1849L113.874 33.8151C121.094 38.0415 124.492 43.0473 125.243 48.7523L135.157 47.4477ZM118.972 25.2125C109.948 19.7977 98.4657 17.3 84.9 17.3V27.3C97.3343 27.3 106.852 29.6023 113.828 33.7875L118.972 25.2125ZM84.9 17.3C68.7749 17.3 55.5495 20.2823 45.8043 26.8546L51.3957 35.1454C58.8505 30.1177 69.8251 27.3 84.9 27.3V17.3ZM45.759 26.8855C36.0083 33.6181 31 43.1556 31 55H41C41 46.4444 44.3917 39.9818 51.441 35.1145L45.759 26.8855ZM31 55C31 65.3901 35.8226 74.0717 44.6515 80.8631L50.7486 72.9369C43.9774 67.7283 41 61.8099 41 55H31ZM44.7 80.9C53.4244 87.4433 66.313 92.9478 82.9497 97.6142L85.6503 87.9858C69.487 83.4522 57.9756 78.3567 50.7 72.9L44.7 80.9ZM82.9618 97.6176C104.179 103.511 119.425 111.129 129.206 120.171L135.994 112.829C124.575 102.271 107.621 94.0888 85.6382 87.9824L82.9618 97.6176ZM129.278 120.237C139.05 128.923 143.8 139.38 143.8 151.9H153.8C153.8 136.42 147.75 123.277 135.922 112.763L129.278 120.237ZM143.8 151.9C143.8 161.637 140.938 170.528 135.125 178.702L143.275 184.498C150.262 174.672 153.8 163.763 153.8 151.9H143.8ZM135.156 178.659C129.304 186.707 121.401 193.086 111.299 197.763L115.501 206.837C126.999 201.514 136.297 194.093 143.244 184.541L135.156 178.659ZM111.299 197.763C101.175 202.45 90.3933 204.8 78.9 204.8V214.8C91.8067 214.8 104.025 212.15 115.501 206.837L111.299 197.763ZM176.327 205.3L172.792 208.836L172.885 208.929L172.983 209.016L176.327 205.3ZM176.327 192.4L179.649 196.137L179.661 196.127L179.672 196.116L176.327 192.4ZM212.027 189.7V194.7H217.027V189.7H212.027ZM212.027 25.3H217.027V20.3H212.027V25.3ZM176.327 22.6L172.792 26.1355L172.885 26.2285L172.983 26.3165L176.327 22.6ZM176.327 9.7L179.649 13.4371L179.661 13.4268L179.672 13.4165L176.327 9.7ZM266.027 9.7L262.492 13.2355L262.596 13.3394L262.706 13.437L266.027 9.7ZM266.027 22.6L269.563 26.1355L269.563 26.1355L266.027 22.6ZM231.227 25.3V20.3H226.227V25.3H231.227ZM231.227 189.7H226.227V194.7H231.227V189.7ZM266.027 192.4L262.29 195.722L262.486 195.942L262.706 196.137L266.027 192.4ZM266.027 205.3L269.563 208.836L269.563 208.836L266.027 205.3ZM183.527 203C181.907 203 180.714 202.521 179.672 201.584L172.983 209.016C175.941 211.679 179.547 213 183.527 213V203ZM179.863 201.764C179.023 200.924 178.627 200.006 178.627 198.7H168.627C168.627 202.594 170.032 206.076 172.792 208.836L179.863 201.764ZM178.627 198.7C178.627 197.4 179.009 196.706 179.649 196.137L173.006 188.663C170.046 191.294 168.627 194.8 168.627 198.7H178.627ZM179.672 196.116C180.714 195.179 181.907 194.7 183.527 194.7V184.7C179.547 184.7 175.941 186.021 172.983 188.684L179.672 196.116ZM183.527 194.7H212.027V184.7H183.527V194.7ZM217.027 189.7V25.3H207.027V189.7H217.027ZM212.027 20.3H183.527V30.3H212.027V20.3ZM183.527 20.3C181.907 20.3 180.714 19.8211 179.672 18.8835L172.983 26.3165C175.941 28.9789 179.547 30.3 183.527 30.3V20.3ZM179.863 19.0645C179.023 18.2244 178.627 17.3057 178.627 16H168.627C168.627 19.8943 170.032 23.3756 172.792 26.1355L179.863 19.0645ZM178.627 16C178.627 14.7002 179.009 14.0064 179.649 13.4371L173.006 5.96294C170.046 8.59361 168.627 12.0998 168.627 16H178.627ZM179.672 13.4165C180.714 12.4789 181.907 12 183.527 12V1.99999C179.547 1.99999 175.941 3.3211 172.983 5.98353L179.672 13.4165ZM183.527 12H259.427V1.99999H183.527V12ZM259.427 12C260.733 12 261.652 12.3954 262.492 13.2355L269.563 6.16446C266.803 3.40455 263.322 1.99999 259.427 1.99999V12ZM262.706 13.437C263.346 14.0064 263.727 14.7002 263.727 16H273.727C273.727 12.0998 272.309 8.59362 269.349 5.96295L262.706 13.437ZM263.727 16C263.727 17.3057 263.332 18.2244 262.492 19.0645L269.563 26.1355C272.323 23.3756 273.727 19.8943 273.727 16H263.727ZM262.492 19.0645C261.652 19.9045 260.733 20.3 259.427 20.3V30.3C263.322 30.3 266.803 28.8954 269.563 26.1355L262.492 19.0645ZM259.427 20.3H231.227V30.3H259.427V20.3ZM226.227 25.3V189.7H236.227V25.3H226.227ZM231.227 194.7H259.427V184.7H231.227V194.7ZM259.427 194.7C261.055 194.7 261.797 195.167 262.29 195.722L269.764 189.078C267.058 186.033 263.4 184.7 259.427 184.7V194.7ZM262.706 196.137C263.346 196.706 263.727 197.4 263.727 198.7H273.727C273.727 194.8 272.309 191.294 269.349 188.663L262.706 196.137ZM263.727 198.7C263.727 200.006 263.332 200.924 262.492 201.764L269.563 208.836C272.323 206.076 273.727 202.594 273.727 198.7H263.727ZM262.492 201.764C261.652 202.605 260.733 203 259.427 203V213C263.322 213 266.803 211.595 269.563 208.836L262.492 201.764ZM259.427 203H183.527V213H259.427V203ZM307.608 207.1L303.891 210.445L304.067 210.64L304.263 210.816L307.608 207.1ZM306.108 10.3L301.737 7.87177L301.684 7.96675L301.636 8.06392L306.108 10.3ZM413.508 21.1L411.032 25.4441L411.032 25.4441L413.508 21.1ZM422.208 109L425.397 112.851L425.415 112.836L425.432 112.821L422.208 109ZM376.008 131.8L377.246 136.644L377.246 136.644L376.008 131.8ZM324.108 139L324.048 134L319.108 134.06V139H324.108ZM321.408 207.1L324.943 210.636L325.036 210.543L325.124 210.445L321.408 207.1ZM324.108 120.1H319.108V125.184L324.191 125.099L324.108 120.1ZM364.608 115.3L363.627 110.397L363.627 110.397L364.608 115.3ZM404.808 99.1L407.565 103.271L407.589 103.255L407.614 103.239L404.808 99.1ZM324.108 24.4L323.488 19.4386L319.108 19.9861V24.4H324.108ZM314.508 204.8C313.19 204.8 312.07 204.389 310.953 203.384L304.263 210.816C307.146 213.411 310.626 214.8 314.508 214.8V204.8ZM311.324 203.755C310.319 202.638 309.908 201.518 309.908 200.2H299.908C299.908 204.082 301.297 207.562 303.891 210.445L311.324 203.755ZM309.908 200.2V18.4H299.908V200.2H309.908ZM309.908 18.4C309.908 14.6923 310.34 13.0163 310.58 12.5361L301.636 8.06392C300.276 10.7837 299.908 14.5077 299.908 18.4H309.908ZM310.479 12.7282C310.454 12.7716 310.534 12.5856 311.051 12.2796C311.59 11.9615 312.478 11.5907 313.853 11.2671L311.563 1.5329C307.7 2.44164 303.771 4.21109 301.737 7.87177L310.479 12.7282ZM313.853 11.2671C316.644 10.6104 321.74 10.2 329.508 10.2V0.199982C321.676 0.199982 315.572 0.589562 311.563 1.5329L313.853 11.2671ZM329.508 10.2C366.603 10.2 393.559 15.486 411.032 25.4441L415.983 16.7559C396.257 5.51398 367.213 0.199982 329.508 0.199982V10.2ZM411.032 25.4441C428.206 35.2314 436.408 48.9461 436.408 67H446.408C446.408 45.0539 436.01 28.1686 415.983 16.7559L411.032 25.4441ZM436.408 67C436.408 82.7726 430.623 95.3577 418.983 105.179L425.432 112.821C439.393 101.042 446.408 85.6274 446.408 67H436.408ZM419.019 105.149C406.852 115.225 392.139 122.517 374.77 126.956L377.246 136.644C395.877 131.883 411.964 123.975 425.397 112.851L419.019 105.149ZM374.77 126.956C357.11 131.469 340.206 133.806 324.048 134L324.168 144C341.209 143.794 358.906 141.331 377.246 136.644L374.77 126.956ZM319.108 139V200.2H329.108V139H319.108ZM319.108 200.2C319.108 201.518 318.697 202.638 317.691 203.755L325.124 210.445C327.719 207.562 329.108 204.082 329.108 200.2H319.108ZM317.872 203.564C317.108 204.329 316.127 204.8 314.508 204.8V214.8C318.488 214.8 322.107 213.471 324.943 210.636L317.872 203.564ZM324.191 125.099C336.561 124.893 350.369 123.247 365.588 120.203L363.627 110.397C348.847 113.353 335.654 114.907 324.024 115.101L324.191 125.099ZM365.588 120.203C381.17 117.087 395.183 111.456 407.565 103.271L402.051 94.9289C390.833 102.344 378.045 107.513 363.627 110.397L365.588 120.203ZM407.614 103.239C420.682 94.3787 427.508 82.1799 427.508 67H417.508C417.508 78.6201 412.534 87.8213 402.002 94.9615L407.614 103.239ZM427.508 67C427.508 59.1192 425.317 51.9868 420.871 45.7866C416.465 39.6411 410.028 34.6634 401.896 30.7044L397.519 39.6955C404.587 43.1366 409.55 47.1589 412.744 51.6134C415.899 56.0132 417.508 61.0808 417.508 67H427.508ZM401.896 30.7044C385.705 22.8215 363.123 19.1 334.608 19.1V29.1C362.493 29.1 383.311 32.7784 397.519 39.6955L401.896 30.7044ZM334.608 19.1C329.286 19.1 325.456 19.1926 323.488 19.4386L324.728 29.3614C325.96 29.2074 329.13 29.1 334.608 29.1V19.1ZM319.108 24.4V120.1H329.108V24.4H319.108ZM482.079 209.8L481.731 204.812L481.697 204.814L481.664 204.817L482.079 209.8ZM475.479 207.1L471.609 210.266L471.767 210.459L471.943 210.636L475.479 207.1ZM475.479 8.49999L471.943 4.96446L471.943 4.96446L475.479 8.49999ZM488.979 8.49999L485.262 11.8448L485.438 12.0404L485.634 12.2165L488.979 8.49999ZM491.979 190.3H486.979V195.651L492.318 195.288L491.979 190.3ZM584.679 184L585.018 188.988L585.027 188.988L585.035 188.987L584.679 184ZM591.579 186.4L595.114 182.864L595.114 182.864L591.579 186.4ZM585.279 202.6L585.627 207.588L585.661 207.586L585.694 207.583L585.279 202.6ZM481.664 204.817C480.991 204.873 480.175 204.725 479.014 203.564L471.943 210.636C474.782 213.475 478.367 215.127 482.494 214.783L481.664 204.817ZM479.349 203.934C478.139 202.455 477.779 201.242 477.779 200.2H467.779C467.779 203.958 469.219 207.345 471.609 210.266L479.349 203.934ZM477.779 200.2V14.8H467.779V200.2H477.779ZM477.779 14.8C477.779 13.8128 478.089 12.961 479.014 12.0355L471.943 4.96446C469.269 7.63901 467.779 10.9872 467.779 14.8H477.779ZM479.014 12.0355C480.168 10.8824 481.228 10.5 482.379 10.5V0.499996C478.33 0.499996 474.79 2.11757 471.943 4.96446L479.014 12.0355ZM482.379 10.5C483.506 10.5 484.373 10.8566 485.262 11.8448L492.695 5.15517C489.985 2.14338 486.452 0.499996 482.379 0.499996V10.5ZM485.634 12.2165C486.722 13.1959 486.979 13.9977 486.979 14.8H496.979C496.979 10.8023 495.235 7.40406 492.324 4.78353L485.634 12.2165ZM486.979 14.8V190.3H496.979V14.8H486.979ZM492.318 195.288L585.018 188.988L584.34 179.012L491.64 185.312L492.318 195.288ZM585.035 188.987C586.556 188.879 587.382 189.274 588.043 189.936L595.114 182.864C592.176 179.926 588.402 178.721 584.323 179.013L585.035 188.987ZM588.043 189.936C588.808 190.7 589.279 191.68 589.279 193.3H599.279C599.279 189.32 597.95 185.7 595.114 182.864L588.043 189.936ZM589.279 193.3C589.279 194.287 588.969 195.139 588.043 196.064L595.114 203.136C597.789 200.461 599.279 197.113 599.279 193.3H589.279ZM588.043 196.064C587.028 197.08 586.014 197.521 584.864 197.617L585.694 207.583C589.343 207.279 592.53 205.72 595.114 203.136L588.043 196.064ZM584.931 197.612L481.731 204.812L482.427 214.788L585.627 207.588L584.931 197.612Z" fill="white"/>
</svg>
